# xmcd
#
# Track frame offsets: 
#        150
#        20332
#        41436
#        63831
#        84049
#        100693
#        121874
#        143131
#        163744
#        183275
#
# Disc length: 2741 seconds
#
# Revision: 0
# Processed by: cddbd v1.5.2PL0 Copyright (c) Steve Scherf et al.
# Submitted via: ExactAudioCopy v1.3
#
DISCID=6e0ab30a
DTITLE=Ms. Jody - Get It! Get It!
DYEAR=2019
DGENRE=Blues
TTITLE0=You Can Ride
TTITLE1=Get It! Get It!
TTITLE2=It Feels so Good to Me
TTITLE3=Turn It On
TTITLE4=Got to Make a Change
TTITLE5=Doin' the Electric Slide (Remix)
TTITLE6=Bedroom Fun
TTITLE7=I Done Found My Good Thang Too
TTITLE8=A Man Like That
TTITLE9=Haters Gonna Be Hatin'
EXTD=
EXTT0=
EXTT1=
EXTT2=
EXTT3=
EXTT4=
EXTT5=
EXTT6=
EXTT7=
EXTT8=
EXTT9=
PLAYORDER=
